# xmcd
#
# Track frame offsets: 
#        150
#        8242
#        10632
#        28136
#        45799
#        61286
#        76838
#        92440
#        109655
#        123750
#        139737
#        156642
#        176996
#        193832
#        203929
#
# Disc length: 3000 seconds
#
# Revision: 0
# Processed by: cddbd v1.5.2PL0 Copyright (c) Steve Scherf et al.
# Submitted via: ExactAudioCopyFreeDBPlugin 1.0
#
DISCID=bd0bb60f
DTITLE=Marsha Ambrosius - Nyla
DYEAR=2018
DGENRE=R&B/Soul
TTITLE0=Nyla
TTITLE1=2K (Interlude)
TTITLE2=Bottle Fulla Liquor
TTITLE3=Flood
TTITLE4=I Got It Bad
TTITLE5=Let Out
TTITLE6=Luh Ya
TTITLE7=How High
TTITLE8=Today
TTITLE9=Old Times
TTITLE10=Never Be the Same Again
TTITLE11=Glass
TTITLE12=Scorn
TTITLE13=I'm Moving On (Interlude)
TTITLE14=Grande Finale
EXTD=
EXTT0=
EXTT1=
EXTT2=
EXTT3=
EXTT4=
EXTT5=
EXTT6=
EXTT7=
EXTT8=
EXTT9=
EXTT10=
EXTT11=
EXTT12=
EXTT13=
EXTT14=
PLAYORDER=
